<?xml version="1.0" encoding="UTF-8"?>
<svg id="Capa_1" xmlns="http://www.w3.org/2000/svg" viewBox="0 0 209.97 99.24">
  <defs>
    <style>
      .cls-1 {
        fill: #f9d08f;
      }

      .cls-2 {
        fill: #68a4fc;
      }

      .cls-3 {
        fill: #aacef9;
      }
    </style>
  </defs>
  <path class="cls-2" d="M101.34,50.62c0-3.35-2.67-6.07-6-6.16.05-.34.08-.68.08-1.03,0-4.29-3.48-7.77-7.77-7.77-2.68,0-5.04,1.35-6.44,3.41-.89-.5-1.92-.79-3.02-.79-3.41,0-6.17,2.76-6.17,6.17,0,.12.01.23.02.35-2.41.84-4.14,3.13-4.14,5.82h33.45Z"/>
  <path class="cls-2" d="M35.81,53.43c0-5.55,4.78-9.3,9.64-9.3,5.55,0,9.47,3.75,9.47,9.3v8.87h-4.78v-8.87c0-2.82-1.96-4.86-4.78-4.86s-4.78,2.05-4.78,4.86v8.87h-4.78v-8.87Z"/>
  <path class="cls-2" d="M58.51,37.99c0-1.62,1.37-2.9,2.99-2.9s2.9,1.28,2.9,2.9-1.28,2.99-2.9,2.99-2.99-1.37-2.99-2.99ZM59.02,44.56h4.78v17.75h-4.78v-17.75Z"/>
  <path class="cls-2" d="M105.1,53.43v-22.18h4.78v14.85c1.02-1.19,2.99-1.96,5.2-1.96,5.38,0,9.13,3.75,9.13,9.3,0,5.12-4.44,9.3-9.56,9.3-5.55,0-9.56-3.75-9.56-9.3ZM119.43,53.43c0-2.82-1.96-4.86-4.78-4.86s-4.78,2.05-4.78,4.86,2.05,4.86,4.78,4.86,4.78-2.13,4.78-4.86Z"/>
  <path class="cls-2" d="M127.11,53.43v-8.87h4.78v8.87c0,2.73,2.05,4.86,4.78,4.86s4.78-2.13,4.78-4.86v-8.87h4.78v8.87c0,5.55-4.78,9.3-9.64,9.3-5.55,0-9.47-3.75-9.47-9.3Z"/>
  <path class="cls-1" d="M157.03,53.43l-6.31-8.87h5.12l3.75,5.29,9.44-10.98h5.12l-12,14.56,6.31,8.87h-5.12l-3.75-5.29-10.87,10.98h-5.12l13.42-14.56Z"/>
  <g>
    <rect class="cls-3" x="82.23" y="53.43" width="4.78" height="8.87" rx="2.39" ry="2.39"/>
    <rect class="cls-3" x="96.56" y="53.43" width="4.78" height="8.87" rx="2.39" ry="2.39"/>
    <rect class="cls-3" x="67.89" y="53.43" width="4.78" height="8.87" rx="2.39" ry="2.39"/>
  </g>
</svg>